<?xml version="1.0" encoding="UTF-8" standalone="no"?>
<svg
   xmlns:dc="http://purl.org/dc/elements/1.1/"
   xmlns:cc="http://creativecommons.org/ns#"
   xmlns:rdf="http://www.w3.org/1999/02/22-rdf-syntax-ns#"
   xmlns:svg="http://www.w3.org/2000/svg"
   xmlns="http://www.w3.org/2000/svg"
   xmlns:sodipodi="http://sodipodi.sourceforge.net/DTD/sodipodi-0.dtd"
   xmlns:inkscape="http://www.inkscape.org/namespaces/inkscape"
   sodipodi:docname="Zeichnung-1.svg"
   inkscape:version="1.0 (4035a4f, 2020-05-01)"
   id="svg8"
   version="1.1"
   viewBox="0 0 210 297"
   height="297mm"
   width="210mm">
  <defs
     id="defs2" />
  <sodipodi:namedview
     inkscape:window-maximized="0"
     inkscape:window-y="0"
     inkscape:window-x="0"
     inkscape:window-height="1052"
     inkscape:window-width="1248"
     showgrid="false"
     inkscape:document-rotation="0"
     inkscape:current-layer="layer1"
     inkscape:document-units="mm"
     inkscape:cy="560"
     inkscape:cx="400"
     inkscape:zoom="0.35"
     inkscape:pageshadow="2"
     inkscape:pageopacity="0.0"
     borderopacity="1.0"
     bordercolor="#666666"
     pagecolor="#ffffff"
     id="base" />
  <metadata
     id="metadata5">
    <rdf:RDF>
      <cc:Work
         rdf:about="">
        <dc:format>image/svg+xml</dc:format>
        <dc:type
           rdf:resource="http://purl.org/dc/dcmitype/StillImage" />
        <dc:title></dc:title>
      </cc:Work>
    </rdf:RDF>
  </metadata>
  <g
     id="layer1"
     inkscape:groupmode="layer"
     inkscape:label="Ebene 1">
    <path
       id="path847"
       d="m 76.138121,220.43014 c -0.20158,-1.62553 -0.70947,-31.18084 -0.69928,-40.69238 l 0.005,-4.86582 -7.73906,0.21494 c -7.798866,0.21659 -11.850276,0.20078 -12.100967,-0.0472 -0.217126,-0.2148 -0.706339,-5.77391 -0.515488,-5.85768 0.09494,-0.0417 0.09348,-0.51793 -0.0032,-1.05834 -0.09672,-0.54041 -0.08966,-1.39551 0.01568,-1.90022 0.105344,-0.50471 0.104605,-1.10002 -0.0016,-1.32292 -0.106246,-0.22289 -0.180289,-0.73268 -0.16454,-1.13286 0.01575,-0.40018 -0.04325,-0.72761 -0.131114,-0.72761 -0.08786,0 -0.121345,-0.38695 -0.07441,-0.85989 0.201403,-2.02936 -0.02784,-16.84166 -0.304888,-19.70001 -0.07344,-0.75768 -0.03755,-1.43693 0.07975,-1.50942 0.117303,-0.0725 0.157299,-1.11945 0.08888,-2.32656 -0.216293,-3.81599 -0.192568,-16.08695 0.03228,-16.69392 0.21249,-0.57362 0.219889,-0.57439 0.50996,-0.0529 0.451351,0.81144 1.004155,1.14033 2.487301,1.47984 1.620622,0.37098 2.421271,0.2096 3.511518,-0.70778 1.624738,-1.36713 2.086538,-3.88742 1.013006,-5.52852 -0.537727,-0.82201 -2.578028,-2.28033 -2.578028,-1.84266 0,0.0999 -0.179602,0.0326 -0.399114,-0.14961 -0.92026,-0.76375 -4.363386,0.74356 -4.363386,1.91017 0,0.93702 -0.545028,0.15981 -0.614058,-0.87565 -0.03301,-0.49521 -0.139076,-1.02585 -0.235692,-1.17921 -0.158313,-0.25129 0.03879,-2.41163 0.517712,-5.67429 l 0.174769,-1.19062 0.14478,1.04938 c 0.209471,1.51828 1.385279,2.25791 3.589464,2.25791 1.532022,0 1.722737,-0.0691 2.739959,-0.99219 0.964241,-0.87505 1.112566,-1.16702 1.256316,-2.47298 0.44436,-4.03704 -3.674854,-6.28323 -7.236111,-3.94582 -0.49668,0.32599 -0.56636,0.55327 -0.444954,1.45136 0.133809,0.98983 0.115317,1.02947 -0.262518,0.56284 -0.223556,-0.2761 -0.342663,-0.60524 -0.264682,-0.73142 0.07798,-0.12617 0.01304,-0.85277 -0.144324,-1.61466 -0.385577,-1.86686 -0.404599,-4.757232 -0.03584,-5.446252 0.298262,-0.55731 0.304471,-0.55618 1.095392,0.19967 1.514386,1.44722 3.743676,1.568992 5.523442,0.30168 1.656845,-1.17978 2.143535,-3.89688 1.001544,-5.59147 -0.722887,-1.07269 -2.407313,-2.08331 -3.482329,-2.08933 -0.740819,-0.004 -0.75352,0.0143 -0.264584,0.38411 0.449278,0.33982 0.457565,0.38952 0.06618,0.39688 -0.246073,0.005 -0.52099,-0.11065 -0.610927,-0.25617 -0.08994,-0.14552 -0.39629,-0.26459 -0.680784,-0.26459 -0.703453,0 -2.349245,1.09713 -2.381391,1.5875 -0.01431,0.21829 -0.123857,0.072 -0.243439,-0.32498 -0.327102,-1.08599 -0.508975,-5.74604 -0.271287,-6.95106 0.21725,-1.1014 0.248182,-1.1235 0.404819,-0.28926 0.209514,1.11587 2.182579,2.26035 3.912825,2.26965 2.62718,0.0141 4.668578,-3.43355 3.496067,-5.904444 -0.462779,-0.97523 -2.358368,-2.44193 -3.538954,-2.73824 -0.420621,-0.10557 -1.13877,0.0926 -2.12203,0.58568 -1.733986,0.86948 -1.873666,1.03046 -1.879067,2.16571 -0.0031,0.647354 -0.09923,0.815064 -0.400926,0.699294 -0.479803,-0.18412 -0.529668,-1.320914 -0.06615,-1.507954 0.264583,-0.10676 0.264583,-0.13763 0,-0.15434 -0.19646,-0.0124 -0.330729,-0.3905 -0.330729,-0.93131 0,-0.50074 -0.124844,-0.98759 -0.277431,-1.08189 -0.168742,-0.10429 -0.184192,-0.29181 -0.03944,-0.47864 0.130897,-0.16894 0.248701,-1.24668 0.261788,-2.39497 0.01409,-1.23677 0.1515,-2.20741 0.337094,-2.38125 0.231136,-0.21649 0.347993,-0.19805 0.445591,0.0703 0.388892,1.06945 2.112863,1.88056 4.003666,1.88368 2.140078,0.004 3.964057,-2.32015 3.59538,-4.58038 -0.401118,-2.4591 -2.104216,-3.86048 -4.535525,-3.732 -1.301965,0.0688 -2.732792,0.69737 -2.732792,1.20053 0,0.12879 -0.162083,0.23416 -0.360185,0.23416 -0.214671,0 -0.336275,0.2405 -0.301002,0.59531 0.03255,0.32742 0.0078,0.38695 -0.05509,0.13229 -0.06285,-0.25466 -0.225055,-0.46302 -0.360455,-0.46302 -0.1354,0 -0.246182,-0.30468 -0.246182,-0.67707 0,-0.37239 -0.105692,-0.61175 -0.234871,-0.53192 -0.194906,0.12046 -0.219649,-3.39202 -0.0269,-3.81809 0.03292,-0.0728 0.04323,-0.22914 0.02292,-0.34751 -0.02031,-0.11837 0.09502,-0.65562 0.256291,-1.19388 l 0.293216,-0.97867 1.046434,0.99545 c 0.575539,0.54749 1.196202,0.99545 1.379252,0.99545 0.183049,0 0.472403,0.13958 0.643008,0.31018 0.3525,0.35251 1.647726,0.47782 1.647726,0.15943 0,-0.11512 0.473964,-0.39896 1.053253,-0.63074 0.6197,-0.24796 1.260333,-0.76441 1.556325,-1.25463 0.72243,-1.19651 0.939992,-3.10051 0.480061,-4.20128 -0.731527,-1.75079 -3.514202,-3.29933 -4.864018,-2.70679 -0.261019,0.11458 -0.592473,0.21861 -0.736564,0.23118 -0.144092,0.0126 -0.323855,0.38004 -0.399474,0.8166 -0.0806,0.46534 -0.300621,0.79375 -0.531765,0.79375 -0.248564,0 -0.360027,-0.19514 -0.301602,-0.52803 0.09028,-0.51439 0.07877,-0.51546 -0.445178,-0.0413 -0.295818,0.26771 -0.473611,0.65415 -0.395096,0.85876 0.07852,0.20461 0.01898,0.37202 -0.132305,0.37202 -0.438825,0 -0.650239,-1.03446 -0.602007,-2.94565 0.02463,-0.97595 -0.07315,-1.84733 -0.217286,-1.93641 -0.144137,-0.0891 -0.206401,-0.30703 -0.138365,-0.48433 0.06804,-0.1773 0.154399,-3.41794 0.191918,-7.20142 l 0.06822,-6.87907 8.461632,0.0201 c 4.653895,0.011 15.903035,0.10433 24.998095,0.20732 9.09505,0.10299 23.124539,0.19032 31.176649,0.19406 10.17867,0.005 14.83727,0.0966 15.28687,0.30144 0.4824,0.2198 0.72549,0.21582 0.95699,-0.0157 0.18151,-0.18151 1.12378,-0.31032 2.27009,-0.31032 1.67834,0 1.9367,0.0601 1.79916,0.41852 -0.0883,0.23018 -0.1606,0.4683 -0.1606,0.52916 0,0.0609 -0.15523,0.11065 -0.34497,0.11065 -0.47112,0 -1.86131,1.51632 -2.42576,2.64584 -0.64406,1.28884 -0.81422,4.95234 -0.27779,5.98095 0.21968,0.42126 0.40016,0.91475 0.40106,1.09665 7.9e-4,0.1819 0.13061,0.33073 0.28826,0.33073 0.15765,0 0.23744,0.14758 0.17732,0.32795 -0.13279,0.39835 1.9608,2.07916 3.24022,2.60137 0.5195,0.21204 1.80003,0.37797 2.91688,0.37797 1.66395,0 2.11511,-0.0977 2.74766,-0.59531 0.41625,-0.32742 0.90316,-0.59531 1.08203,-0.59531 0.35478,0 1.72009,-1.83139 1.72009,-2.30728 0,-0.16195 0.12537,-0.33625 0.27858,-0.38732 0.85349,-0.2845 1.0344,-5.13048 0.24511,-6.56582 -0.28007,-0.50932 -0.5859,-1.1344 -0.67961,-1.38906 -0.0937,-0.25466 -0.31663,-0.46302 -0.49539,-0.46302 -0.17875,0 -0.54051,-0.23813 -0.8039,-0.52917 -0.26339,-0.29104 -0.62057,-0.52917 -0.79375,-0.52917 -0.17317,0 -0.53036,-0.23812 -0.79375,-0.52916 -0.47458,-0.52441 -0.46212,-0.52917 1.38489,-0.52917 1.42797,0 2.007,0.11597 2.47627,0.49596 0.60447,0.48947 0.61346,0.57693 0.68671,6.68073 0.0408,3.40162 0.14228,9.22086 0.22547,12.93164 0.0832,3.71078 0.13628,7.01477 0.11798,7.34219 -0.0718,1.28508 -0.0405,4.69945 0.0977,10.64948 0.0794,3.41974 0.21834,13.301924 0.30867,21.960414 0.0903,8.658492 0.20759,18.897872 0.26059,22.754172 0.23427,17.04602 0.40295,28.92953 0.55207,38.89375 0.17702,11.82846 0.0893,12.75931 -1.21647,12.907 -1.35801,0.15359 -6.93054,0.2899 -12.50067,0.30577 l -5.75468,0.0164 v 0.99394 c 0,0.54666 -0.11906,1.40904 -0.26457,1.91641 -0.17,0.59276 -0.17665,1.44323 -0.0186,2.3795 0.31215,1.84903 0.67091,16.51183 0.77603,31.71642 0.0358,5.18209 -0.0375,7.34609 -0.25777,7.61154 -0.1693,0.20399 -0.32122,0.62813 -0.3376,0.94252 -0.0201,0.3852 -0.26326,0.63404 -0.74563,0.76296 -0.73861,0.19741 -4.47681,0.4173 -10.92583,0.64269 -2.0373,0.0712 -5.37105,0.19171 -7.40834,0.26778 -2.03729,0.0761 -5.78776,0.19804 -8.33437,0.27103 -2.54662,0.073 -6.178019,0.18191 -8.069789,0.24204 -1.89177,0.0601 -6.85253,0.19513 -11.0239,0.30001 l -7.58431,0.19067 -0.14461,-1.16615 z m 3.61045,-45.92199 c -0.17913,-0.0725 -0.53632,-0.0769 -0.79375,-0.01 -0.25743,0.0671 -0.11087,0.12639 0.32569,0.13178 0.43657,0.005 0.64719,-0.0495 0.46806,-0.12197 z m 66.926529,-6.07422 c 1.13142,-0.58508 2.06222,-2.16633 1.92202,-3.26515 -0.0654,-0.51276 0.0131,-0.99411 0.17878,-1.09653 0.21726,-0.13427 0.2168,-0.27745 -0.002,-0.54125 -0.16342,-0.19727 -0.61077,-0.7499 -0.9941,-1.22807 -0.91932,-1.14692 -1.93644,-1.64415 -3.36312,-1.64415 -1.66338,0 -2.8678,0.95848 -3.93044,3.12783 l -0.56012,1.14346 0.60653,1.1055 c 0.86448,1.57565 1.3135,2.04058 2.51229,2.60131 1.14737,0.53667 2.32731,0.4707 3.63001,-0.20295 z m -0.35394,-11.53419 c 0.52649,-0.32122 1.00192,-0.69329 1.05649,-0.82682 0.0546,-0.13353 0.30434,-0.44791 0.55506,-0.69862 0.525,-0.525 0.99715,-2.80552 0.51975,-2.51047 -0.18862,0.11657 -0.27117,-0.0421 -0.23079,-0.44355 0.0956,-0.95084 -0.39329,-1.87713 -1.37731,-2.60941 -1.2077,-0.89874 -3.67016,-0.94229 -4.87037,-0.0861 -1.14089,0.81384 -2.74244,4.05489 -2.0037,4.05489 0.12786,0 0.38919,0.37832 0.58072,0.84071 0.44524,1.07492 1.72912,2.30458 2.60629,2.49625 0.37485,0.0819 0.80061,0.18862 0.94613,0.23717 0.66568,0.22206 1.3338,0.0853 2.21773,-0.45401 z m -0.68788,-11.42191 c 0.46827,-0.20036 1.20634,-0.74161 1.64016,-1.20279 0.65721,-0.69866 0.81266,-1.12329 0.93205,-2.54613 0.0788,-0.93919 0.0795,-1.70762 0.002,-1.70762 -0.0779,0 -0.25924,-0.25851 -0.40289,-0.57446 -0.14364,-0.31595 -0.71205,-0.93564 -1.26311,-1.37708 -0.86684,-0.69439 -1.20205,-0.79794 -2.48593,-0.76788 -0.81619,0.0191 -1.55594,0.14472 -1.64389,0.27914 -0.088,0.13441 -0.4162,0.37926 -0.72945,0.5441 -0.31325,0.16484 -0.82956,0.83684 -1.14737,1.49335 -0.31781,0.6565 -0.68659,1.26086 -0.81952,1.34301 -0.33473,0.20688 -0.30474,1.17648 0.0364,1.17648 0.15294,0 0.44021,0.38696 0.63835,0.8599 0.44563,1.06361 1.31552,1.89827 2.52504,2.42279 1.16122,0.50357 1.65123,0.51388 2.71859,0.0572 z m 0.20018,-11.81177 c 1.28376,-0.65492 2.32834,-2.20548 2.22455,-3.30207 -0.0413,-0.43656 -0.0848,-1.17656 -0.0966,-1.64443 -0.0307,-1.21522 -1.30041,-2.56602 -2.80899,-2.9884 -1.49923,-0.41976 -2.9134,-0.0308 -3.99582,1.099 -0.39821,0.41564 -0.8676,0.75571 -1.04309,0.75571 -0.46591,0 -0.67953,0.75517 -0.37473,1.32469 0.145,0.27093 0.26364,0.88098 0.26364,1.35567 0,1.19721 1.20627,2.84307 2.50904,3.4234 1.40132,0.62422 2.06143,0.61954 3.32203,-0.0236 z m -1.06857,-11.23957 c 0.18115,-0.21828 0.50529,-0.39687 0.72031,-0.39687 0.52445,0 2.1901,-1.69029 2.1901,-2.2225 0,-0.23283 0.10918,-0.42333 0.24262,-0.42333 0.29809,0 0.19675,-1.34191 -0.21372,-2.83009 -0.32475,-1.17743 -1.14894,-1.99444 -2.6409,-2.61791 -1.25816,-0.52577 -1.61939,-0.47616 -3.0253,0.41544 -1.18298,0.75023 -2.40616,2.2658 -2.15571,2.67103 0.0644,0.10418 -0.0609,0.25768 -0.2783,0.34112 -0.51596,0.198 -0.50588,1.1031 0.0188,1.68968 0.2278,0.25466 0.67666,0.87974 0.99746,1.38906 0.32081,0.50932 0.9851,1.12782 1.4762,1.37444 0.49111,0.24662 1.01856,0.57404 1.17213,0.7276 0.40023,0.40024 1.11298,0.34419 1.49629,-0.11767 z m 1.27064,-12.48881 c 1.33695,-0.99818 1.7264,-1.79433 1.71037,-3.4965 -0.0105,-1.11912 -0.17507,-1.84834 -0.55612,-2.4649 -0.54751,-0.88589 -2.82495,-2.32069 -3.67973,-2.31824 -0.78826,0.002 -3.08018,1.9376 -3.60302,3.04246 -0.4279,0.90423 -0.4526,1.21725 -0.18904,2.39498 0.31919,1.4263 1.39001,2.74201 2.66565,3.27528 0.93842,0.3923 2.85002,0.16561 3.65189,-0.43308 z M 53.748222,83.929618 c 0,-0.14552 0.126089,-0.26458 0.280198,-0.26458 0.154109,0 0.206613,0.11906 0.116677,0.26458 -0.08994,0.14552 -0.216026,0.26458 -0.280199,0.26458 -0.06417,0 -0.116676,-0.11906 -0.116676,-0.26458 z M 53.627229,72.835394 c -0.08372,-0.13546 -0.03122,-0.32108 0.116677,-0.41249 0.147894,-0.0914 0.268899,0.0194 0.268899,0.2463 0,0.46475 -0.158765,0.53318 -0.385576,0.16619 z m -0.09291,-1.62409 c -0.0325,-0.42649 -0.01154,-0.77544 0.04656,-0.77544 0.192017,0 0.364538,1.33333 0.186739,1.44322 -0.09582,0.0592 -0.200805,-0.24128 -0.233303,-0.66778 z"
       style="fill:#000000;stroke-width:0.264583" />
  </g>
</svg>
